<svg width="354" height="25" viewBox="0 0 354 25" fill="none" xmlns="http://www.w3.org/2000/svg">
<path d="M9.36719 6.10938C8.3776 6.16146 7.54427 6.53906 6.86719 7.24219C6.21615 7.94531 5.7474 8.7526 5.46094 9.66406C5.17448 10.5495 5.03125 11.4609 5.03125 12.3984C5.03125 13.3359 5.16146 14.2604 5.42188 15.1719C5.70833 16.0833 6.1901 16.8906 6.86719 17.5938C7.54427 18.2708 8.3776 18.6354 9.36719 18.6875H22.2578C23.8984 18.8438 24.7969 19.7422 24.9531 21.3828C24.9271 22.112 24.6536 22.724 24.1328 23.2188C23.612 23.6875 22.987 23.9219 22.2578 23.9219H9.79688H8C6.17708 23.8177 4.67969 23.1276 3.50781 21.8516C2.33594 20.5495 1.48958 19.0781 0.96875 17.4375C0.473958 15.7969 0.226562 14.1172 0.226562 12.3984C0.226562 11.1224 0.369792 9.85938 0.65625 8.60938C0.942708 7.35938 1.38542 6.17448 1.98438 5.05469C2.60938 3.90885 3.42969 2.93229 4.44531 2.125C5.48698 1.31771 6.67188 0.901042 8 0.875H8.74219H22.2578C23.8984 1.03125 24.7969 1.92969 24.9531 3.57031C24.9531 4.29948 24.6797 4.91146 24.1328 5.40625C23.612 5.875 22.987 6.10938 22.2578 6.10938H9.36719ZM30.8422 0.25C31.5453 0.276042 32.1443 0.536458 32.6391 1.03125C33.1339 1.5 33.3943 2.08594 33.4203 2.78906V21.9297C33.2641 23.4922 32.4047 24.3385 30.8422 24.4688C30.113 24.4688 29.475 24.2344 28.9281 23.7656C28.4073 23.2708 28.1469 22.6589 28.1469 21.9297V2.78906C28.1729 2.0599 28.4464 1.46094 28.9672 0.992188C29.488 0.497396 30.113 0.25 30.8422 0.25ZM46.0672 23.9219C43.7755 23.8438 42.0438 23.3099 40.8719 22.3203C39.7 21.3047 38.8536 20.1719 38.3328 18.9219C37.812 17.6458 37.5516 16.3568 37.5516 15.0547C37.5516 13.7005 37.799 12.3984 38.2938 11.1484C38.8146 9.8724 39.6609 8.73958 40.8328 7.75C42.0307 6.73438 43.5411 6.21354 45.3641 6.1875H58.0203C59.8432 6.21354 61.3406 6.73438 62.5125 7.75C63.7104 8.73958 64.5568 9.8724 65.0516 11.1484C65.5724 12.3984 65.8328 13.7005 65.8328 15.0547C65.8328 16.3568 65.5724 17.6458 65.0516 18.9219C64.5307 20.1719 63.6844 21.3047 62.5125 22.3203C61.3406 23.3099 59.6089 23.8438 57.3172 23.9219H46.0672ZM45.2078 11.4219C44.713 11.4219 44.2833 11.6302 43.9188 12.0469C43.5542 12.4375 43.2807 12.9062 43.0984 13.4531C42.9422 13.974 42.8641 14.4948 42.8641 15.0156C42.8641 15.5625 42.9422 16.1094 43.0984 16.6562C43.2807 17.1771 43.5542 17.6458 43.9188 18.0625C44.2833 18.4531 44.713 18.6615 45.2078 18.6875H58.1766C58.6714 18.6615 59.101 18.4531 59.4656 18.0625C59.8302 17.6458 60.0906 17.1771 60.2469 16.6562C60.4292 16.1094 60.5203 15.5625 60.5203 15.0156C60.5203 14.4948 60.4292 13.974 60.2469 13.4531C60.0906 12.9062 59.8302 12.4375 59.4656 12.0469C59.101 11.6302 58.6714 11.4219 58.1766 11.4219H45.2078ZM78.4016 0.25C79.1307 0.25 79.7557 0.497396 80.2766 0.992188C80.7974 1.46094 81.0708 2.0599 81.0969 2.78906V6.1875H94.3781C95.1073 6.1875 95.7323 6.4349 96.2531 6.92969C96.7479 7.45052 96.9953 8.07552 96.9953 8.80469C96.9953 9.53385 96.7349 10.1589 96.2141 10.6797C95.7193 11.1745 95.1073 11.4219 94.3781 11.4219H81.0969V12.2031C81.0708 13.2708 81.1359 14.2604 81.2922 15.1719C81.4745 16.0573 81.8911 16.8516 82.5422 17.5547C83.1932 18.2578 84.0135 18.6354 85.0031 18.6875H94.5344C95.2635 18.7135 95.8625 18.987 96.3313 19.5078C96.826 20.0286 97.0734 20.6536 97.0734 21.3828C97.0474 22.0859 96.787 22.6849 96.2922 23.1797C95.8234 23.6484 95.2375 23.8958 94.5344 23.9219H83.675C81.8521 23.8177 80.3417 23.2057 79.1438 22.0859C77.9719 20.9401 77.1255 19.5469 76.6047 17.9062C76.1099 16.2656 75.8495 14.5208 75.8234 12.6719V11.4219H71.3313C70.6021 11.4219 69.9901 11.1615 69.4953 10.6406C68.9745 10.1458 68.7141 9.53385 68.7141 8.80469C68.7141 8.07552 68.9615 7.46354 69.4563 6.96875C69.9771 6.44792 70.6021 6.1875 71.3313 6.1875H75.8234V2.78906C75.8495 2.08594 76.1099 1.5 76.6047 1.03125C77.0995 0.536458 77.6984 0.276042 78.4016 0.25ZM103.119 0.25C103.822 0.276042 104.421 0.536458 104.916 1.03125C105.41 1.5 105.671 2.08594 105.697 2.78906V6.1875H117.806C119.629 6.21354 121.127 6.73438 122.298 7.75C123.496 8.73958 124.343 9.85938 124.838 11.1094C125.358 12.3854 125.619 13.7005 125.619 15.0547H125.658V21.8516C125.658 22.5807 125.384 23.1927 124.838 23.6875C124.317 24.1562 123.692 24.3906 122.963 24.3906C121.4 24.2604 120.541 23.4141 120.384 21.8516V15.0156C120.384 14.5208 120.28 14 120.072 13.4531C119.89 12.9062 119.616 12.4375 119.252 12.0469C118.887 11.6302 118.457 11.4219 117.963 11.4219H105.697V21.9297C105.541 23.4922 104.681 24.3385 103.119 24.4688C102.39 24.4688 101.752 24.2344 101.205 23.7656C100.684 23.2708 100.423 22.6589 100.423 21.9297V2.78906C100.449 2.0599 100.723 1.46094 101.244 0.992188C101.765 0.497396 102.39 0.25 103.119 0.25ZM138.188 23.9219C135.896 23.8438 134.164 23.3099 132.992 22.3203C131.82 21.3047 130.974 20.1719 130.453 18.9219C129.932 17.6458 129.672 16.3568 129.672 15.0547C129.672 13.7005 129.919 12.3984 130.414 11.1484C130.935 9.8724 131.781 8.73958 132.953 7.75C134.151 6.73438 135.661 6.21354 137.484 6.1875H152.328C153.057 6.1875 153.669 6.4349 154.164 6.92969C154.685 7.39844 154.945 7.97135 154.945 8.64844C154.945 9.35156 154.685 9.95052 154.164 10.4453C153.669 10.9141 153.057 11.1484 152.328 11.1484H137.719C137.146 11.1484 136.638 11.3438 136.195 11.7344C135.779 12.125 135.466 12.6328 135.258 13.2578C135.076 13.8828 134.984 14.4948 134.984 15.0938C134.984 15.7448 135.076 16.3828 135.258 17.0078C135.466 17.6328 135.779 18.1406 136.195 18.5312C136.638 18.8958 137.146 19.0911 137.719 19.1172H152.328C153.057 19.1172 153.669 19.3516 154.164 19.8203C154.685 20.2891 154.945 20.849 154.945 21.5C154.945 22.1771 154.685 22.75 154.164 23.2188C153.669 23.6875 153.057 23.9219 152.328 23.9219H138.188ZM154.477 14.9766C154.477 15.4714 154.255 15.901 153.812 16.2656C153.422 16.6042 152.927 16.7734 152.328 16.7734H139.555C138.956 16.7734 138.448 16.6042 138.031 16.2656C137.615 15.901 137.406 15.4714 137.406 14.9766C137.406 14.5078 137.615 14.0911 138.031 13.7266C138.448 13.388 138.956 13.2188 139.555 13.2188H152.328C152.927 13.2188 153.435 13.401 153.852 13.7656C154.268 14.1042 154.477 14.5078 154.477 14.9766ZM183.842 8.45312C183.842 9.10417 183.582 9.65104 183.061 10.0938C182.566 10.5104 181.954 10.7188 181.225 10.7188H164.702C164.363 10.7188 164.09 10.7839 163.881 10.9141C163.673 11.0443 163.517 11.1875 163.413 11.3438C163.308 11.474 163.256 11.5911 163.256 11.6953C163.256 11.8255 163.308 11.9688 163.413 12.125C163.517 12.2552 163.673 12.3854 163.881 12.5156C164.09 12.6198 164.363 12.6849 164.702 12.7109H177.475C179.116 12.737 180.47 13.0625 181.538 13.6875C182.605 14.2865 183.36 15.0026 183.803 15.8359C184.272 16.6432 184.506 17.4635 184.506 18.2969C184.506 19.1042 184.272 19.9245 183.803 20.7578C183.334 21.5651 182.566 22.2812 181.498 22.9062C180.457 23.5052 179.116 23.8047 177.475 23.8047C177.189 23.8307 176.98 23.8438 176.85 23.8438H161.694C160.965 23.8438 160.34 23.6354 159.819 23.2188C159.324 22.776 159.077 22.2422 159.077 21.6172C159.077 20.9661 159.337 20.4193 159.858 19.9766C160.353 19.5599 160.965 19.3516 161.694 19.3516H177.788C178.178 19.3776 178.491 19.3255 178.725 19.1953C178.985 19.0651 179.181 18.9219 179.311 18.7656C179.441 18.6094 179.506 18.4531 179.506 18.2969C179.506 18.2188 179.441 18.0885 179.311 17.9062C179.181 17.6979 178.985 17.5417 178.725 17.4375C178.491 17.3073 178.178 17.2292 177.788 17.2031H164.975C163.465 17.1771 162.215 16.8646 161.225 16.2656C160.235 15.6406 159.532 14.9245 159.116 14.1172C158.699 13.3099 158.491 12.5026 158.491 11.6953C158.491 10.888 158.699 10.0938 159.116 9.3125C159.558 8.50521 160.261 7.8151 161.225 7.24219C162.215 6.64323 163.465 6.31771 164.975 6.26562C165.235 6.23958 165.431 6.22656 165.561 6.22656H181.225C181.954 6.22656 182.566 6.44792 183.061 6.89062C183.582 7.30729 183.842 7.82812 183.842 8.45312ZM233.316 3.49219C233.316 4.22135 233.055 4.83333 232.534 5.32812C232.04 5.84896 231.428 6.10938 230.698 6.10938H215.073C214.579 6.13542 214.162 6.2526 213.823 6.46094C213.511 6.64323 213.277 6.86458 213.12 7.125C212.964 7.35938 212.886 7.60677 212.886 7.86719C212.886 8.1276 212.964 8.38802 213.12 8.64844C213.277 8.88281 213.511 9.10417 213.823 9.3125C214.162 9.49479 214.579 9.59896 215.073 9.625H226.167C227.99 9.67708 229.488 10.1068 230.659 10.9141C231.857 11.6953 232.704 12.6068 233.198 13.6484C233.719 14.6641 233.98 15.7057 233.98 16.7734C233.98 17.8151 233.719 18.8568 233.198 19.8984C232.678 20.9141 231.831 21.8255 230.659 22.6328C229.488 23.4141 227.99 23.8047 226.167 23.8047H225.933C225.777 23.8307 225.62 23.8438 225.464 23.8438H210.698C209.969 23.8438 209.344 23.5964 208.823 23.1016C208.329 22.5807 208.081 21.9557 208.081 21.2266C208.081 20.4974 208.342 19.8854 208.863 19.3906C209.357 18.8698 209.969 18.6094 210.698 18.6094H226.402C226.896 18.6354 227.3 18.5443 227.613 18.3359C227.951 18.1276 228.198 17.8932 228.355 17.6328C228.511 17.3464 228.589 17.0599 228.589 16.7734C228.589 16.5911 228.511 16.3438 228.355 16.0312C228.198 15.6927 227.951 15.4193 227.613 15.2109C227.3 15.0026 226.896 14.8854 226.402 14.8594H215.308C213.485 14.8073 211.974 14.3906 210.777 13.6094C209.605 12.8281 208.758 11.9427 208.238 10.9531C207.743 9.9375 207.495 8.90885 207.495 7.86719C207.495 6.85156 207.756 5.84896 208.277 4.85938C208.797 3.84375 209.644 2.94531 210.816 2.16406C211.988 1.38281 213.485 0.966146 215.308 0.914062H215.542C215.698 0.888021 215.855 0.875 216.011 0.875H230.698C231.428 0.875 232.04 1.13542 232.534 1.65625C233.055 2.15104 233.316 2.76302 233.316 3.49219ZM246.431 0.25C247.16 0.25 247.785 0.497396 248.306 0.992188C248.827 1.46094 249.101 2.0599 249.127 2.78906V6.1875H262.408C263.137 6.1875 263.762 6.4349 264.283 6.92969C264.778 7.45052 265.025 8.07552 265.025 8.80469C265.025 9.53385 264.765 10.1589 264.244 10.6797C263.749 11.1745 263.137 11.4219 262.408 11.4219H249.127V12.2031C249.101 13.2708 249.166 14.2604 249.322 15.1719C249.504 16.0573 249.921 16.8516 250.572 17.5547C251.223 18.2578 252.043 18.6354 253.033 18.6875H262.564C263.293 18.7135 263.892 18.987 264.361 19.5078C264.856 20.0286 265.103 20.6536 265.103 21.3828C265.077 22.0859 264.817 22.6849 264.322 23.1797C263.853 23.6484 263.267 23.8958 262.564 23.9219H251.705C249.882 23.8177 248.371 23.2057 247.173 22.0859C246.002 20.9401 245.155 19.5469 244.634 17.9062C244.14 16.2656 243.879 14.5208 243.853 12.6719V11.4219H239.361C238.632 11.4219 238.02 11.1615 237.525 10.6406C237.004 10.1458 236.744 9.53385 236.744 8.80469C236.744 8.07552 236.991 7.46354 237.486 6.96875C238.007 6.44792 238.632 6.1875 239.361 6.1875H243.853V2.78906C243.879 2.08594 244.14 1.5 244.634 1.03125C245.129 0.536458 245.728 0.276042 246.431 0.25ZM276.539 23.9219C274.247 23.8438 272.516 23.3099 271.344 22.3203C270.172 21.3047 269.326 20.1719 268.805 18.9219C268.284 17.6458 268.023 16.3568 268.023 15.0547C268.023 13.7005 268.271 12.3984 268.766 11.1484C269.286 9.8724 270.133 8.73958 271.305 7.75C272.503 6.73438 274.013 6.21354 275.836 6.1875H288.492C290.315 6.21354 291.812 6.73438 292.984 7.75C294.182 8.73958 295.029 9.8724 295.523 11.1484C296.044 12.3984 296.305 13.7005 296.305 15.0547C296.305 16.3568 296.044 17.6458 295.523 18.9219C295.003 20.1719 294.156 21.3047 292.984 22.3203C291.812 23.3099 290.081 23.8438 287.789 23.9219H276.539ZM275.68 11.4219C275.185 11.4219 274.755 11.6302 274.391 12.0469C274.026 12.4375 273.753 12.9062 273.57 13.4531C273.414 13.974 273.336 14.4948 273.336 15.0156C273.336 15.5625 273.414 16.1094 273.57 16.6562C273.753 17.1771 274.026 17.6458 274.391 18.0625C274.755 18.4531 275.185 18.6615 275.68 18.6875H288.648C289.143 18.6615 289.573 18.4531 289.938 18.0625C290.302 17.6458 290.562 17.1771 290.719 16.6562C290.901 16.1094 290.992 15.5625 290.992 15.0156C290.992 14.4948 290.901 13.974 290.719 13.4531C290.562 12.9062 290.302 12.4375 289.938 12.0469C289.573 11.6302 289.143 11.4219 288.648 11.4219H275.68ZM301.217 11.1094C301.712 9.85938 302.545 8.73958 303.717 7.75C304.915 6.73438 306.426 6.21354 308.248 6.1875H322.936C323.665 6.1875 324.277 6.44792 324.772 6.96875C325.293 7.46354 325.553 8.07552 325.553 8.80469C325.553 9.53385 325.293 10.1589 324.772 10.6797C324.277 11.1745 323.665 11.4219 322.936 11.4219H308.092C307.597 11.4219 307.168 11.6302 306.803 12.0469C306.439 12.4375 306.152 12.9062 305.944 13.4531C305.761 14 305.67 14.5208 305.67 15.0156V21.8516C305.514 23.4141 304.655 24.2604 303.092 24.3906C302.363 24.3906 301.725 24.1562 301.178 23.6875C300.657 23.1927 300.397 22.5807 300.397 21.8516V15.0547H300.436C300.436 13.7005 300.696 12.3854 301.217 11.1094ZM337.028 23.9219C334.736 23.8438 333.005 23.3099 331.833 22.3203C330.661 21.3047 329.815 20.1719 329.294 18.9219C328.773 17.6458 328.513 16.3568 328.513 15.0547C328.513 13.7005 328.76 12.3984 329.255 11.1484C329.776 9.8724 330.622 8.73958 331.794 7.75C332.992 6.73438 334.502 6.21354 336.325 6.1875H351.169C351.898 6.1875 352.51 6.4349 353.005 6.92969C353.526 7.39844 353.786 7.97135 353.786 8.64844C353.786 9.35156 353.526 9.95052 353.005 10.4453C352.51 10.9141 351.898 11.1484 351.169 11.1484H336.559C335.986 11.1484 335.479 11.3438 335.036 11.7344C334.619 12.125 334.307 12.6328 334.098 13.2578C333.916 13.8828 333.825 14.4948 333.825 15.0938C333.825 15.7448 333.916 16.3828 334.098 17.0078C334.307 17.6328 334.619 18.1406 335.036 18.5312C335.479 18.8958 335.986 19.0911 336.559 19.1172H351.169C351.898 19.1172 352.51 19.3516 353.005 19.8203C353.526 20.2891 353.786 20.849 353.786 21.5C353.786 22.1771 353.526 22.75 353.005 23.2188C352.51 23.6875 351.898 23.9219 351.169 23.9219H337.028ZM353.317 14.9766C353.317 15.4714 353.096 15.901 352.653 16.2656C352.263 16.6042 351.768 16.7734 351.169 16.7734H338.395C337.796 16.7734 337.289 16.6042 336.872 16.2656C336.455 15.901 336.247 15.4714 336.247 14.9766C336.247 14.5078 336.455 14.0911 336.872 13.7266C337.289 13.388 337.796 13.2188 338.395 13.2188H351.169C351.768 13.2188 352.276 13.401 352.692 13.7656C353.109 14.1042 353.317 14.5078 353.317 14.9766Z" fill="#27B4D3"/>
</svg>
